<svg width="170" height="48" viewBox="0 0 170 48" fill="none" xmlns="http://www.w3.org/2000/svg">
<path d="M104.779 0.850455C104.795 0.793553 104.8 0.741822 104.8 0.679747C104.8 0.369367 104.557 0.121064 104.247 0.110718H97.3315C96.8608 0.110718 96.4573 0.410751 96.3022 0.82459L89.449 19.7733C89.4334 19.8198 89.4231 19.8767 89.4231 19.9336C89.4231 20.244 89.6765 20.4975 89.9817 20.5026H96.9022C97.3677 20.5026 97.7711 20.2078 97.9263 19.7939L104.774 0.845282" fill="white"/>
<path d="M82.5958 27.1448L64.3119 27.1499C60.681 27.1499 56.9828 29.2812 55.488 33.192C54.8725 34.8681 53.595 38.2926 52.1364 42.431C52.1364 42.431 52.1364 42.4413 52.1416 42.4517C52.0071 42.8448 51.9347 43.2638 51.9347 43.6983C51.9347 45.8348 53.6622 47.5626 55.7984 47.5626H75.2408C75.696 47.5781 76.1046 47.2832 76.2856 46.8228C76.2856 46.8228 77.3511 43.8432 77.6045 43.1604C77.6149 43.1397 77.6201 43.1241 77.6252 43.1034C77.6356 43.0517 77.6459 42.9948 77.6459 42.9379C77.6459 42.6275 77.3977 42.3741 77.0925 42.3637H60.8982H60.8827C60.5723 42.3637 60.3241 42.1051 60.3241 41.7947C60.3241 41.7585 60.3292 41.7171 60.3344 41.6809H60.3292C60.3292 41.6809 60.3344 41.6498 60.3499 41.6085C60.6189 40.8842 62.8119 34.8629 63.4429 33.0627C63.5929 32.6333 64.0015 32.3281 64.4774 32.3281H80.7389C81.2096 32.3281 81.613 32.0229 81.7682 31.6091C81.9699 31.0659 82.8389 28.6294 83.0975 27.9466C83.0975 27.9311 83.1078 27.9104 83.113 27.8897C83.1285 27.838 83.144 27.7811 83.144 27.7241C83.144 27.4086 82.8906 27.1499 82.5854 27.1448" fill="white"/>
<path d="M169.846 31.0244C169.846 28.888 168.113 27.155 165.977 27.155H146.55C146.369 27.155 145.738 27.2223 145.49 27.9051C145.444 28.0396 138.87 46.2382 138.792 46.4451C138.745 46.5744 138.699 46.6882 138.673 46.771C138.673 46.7969 138.652 46.8124 138.652 46.8331C138.652 46.8331 138.647 46.8745 138.637 46.8952C138.637 46.9314 138.621 46.9676 138.621 47.009C138.621 47.3193 138.875 47.5676 139.185 47.5728C139.185 47.5728 161.4 47.5728 161.41 47.5728C163.21 47.5728 164.643 46.3623 165.155 44.6811C165.765 43.0102 168.176 36.425 169.639 32.2866V32.2659C169.769 31.878 169.846 31.4538 169.846 31.0193M160.872 33.1143C160.609 33.8385 158.416 39.8651 157.779 41.6653C157.634 42.0895 157.226 42.405 156.74 42.405H148.966C148.661 42.3947 148.407 42.1412 148.407 41.836C148.407 41.7946 148.423 41.6911 148.438 41.6446C148.702 40.9204 150.911 34.8938 151.547 33.104C151.692 32.6694 152.1 32.3591 152.581 32.3591C152.592 32.3591 160.345 32.3591 160.345 32.3591C160.65 32.3591 160.898 32.6125 160.898 32.9229C160.898 32.9643 160.888 33.0678 160.872 33.1091" fill="white"/>
<path d="M133.744 5.27853H140.525C140.83 5.28888 141.078 5.53718 141.078 5.84756C141.078 5.90964 141.068 5.97172 141.052 6.02862C139.071 11.4551 136.289 19.2404 136.108 19.7112C136.108 19.7319 136.092 19.7474 136.082 19.7681C136.071 19.8198 136.061 19.8819 136.061 19.9388C136.061 20.2492 136.309 20.5026 136.615 20.5078H143.349C143.819 20.5078 144.223 20.2078 144.373 19.7888C144.373 19.7888 144.378 19.7888 144.378 19.7784C144.513 19.4215 147.388 11.4499 149.369 5.97689V5.96654C149.535 5.56822 149.918 5.28371 150.373 5.27853H159.191C159.662 5.27853 160.06 4.9785 160.216 4.55949C160.412 4.0215 161.271 1.58502 161.524 0.907358C161.529 0.886666 161.534 0.865974 161.54 0.850456C161.555 0.793553 161.571 0.741822 161.571 0.679747C161.571 0.369367 161.322 0.121064 161.012 0.110718H135.585C135.115 0.110718 134.711 0.405578 134.556 0.82459V0.829763C134.359 1.36258 133.475 3.79906 133.222 4.48189C133.222 4.50259 133.211 4.52328 133.206 4.5388C133.185 4.59053 133.18 4.64743 133.18 4.70433C133.18 5.01988 133.428 5.26819 133.739 5.27336" fill="white"/>
<path d="M63.1428 0.105591H42.3193C37.9902 0.405624 34.4627 3.64909 33.6868 7.82887V7.83921C33.6351 8.09269 33.6093 8.35134 33.6093 8.62033C33.6093 10.7568 35.3368 12.4897 37.4781 12.4897H49.5656C50.0363 12.5259 50.4242 12.8674 50.5277 13.3071C50.5484 13.3588 50.5587 13.426 50.5587 13.5398V13.5554C50.5587 13.5554 50.5587 13.5916 50.5587 13.6071V13.6174C50.5173 14.5641 49.7363 15.3297 48.7743 15.3297H32.1869C31.7162 15.3297 31.3128 15.6297 31.1628 16.0436L29.8284 19.7836C29.8128 19.8354 29.8025 19.8923 29.8025 19.9492C29.8025 20.2596 30.0508 20.513 30.3611 20.5234H50.5122C55.1413 20.5234 58.9895 17.192 59.8015 12.7949C59.8532 12.5363 59.8791 12.2725 59.8791 12.0035C59.8791 9.8722 58.1516 8.11855 56.0103 8.11855H43.99C43.4883 8.11855 43.0641 7.76679 42.9452 7.29605C42.9452 7.23914 42.9193 7.17707 42.9193 7.06326V6.99084C42.9607 6.03384 43.7417 5.28375 44.7037 5.28375H61.2963C61.767 5.28375 62.1704 4.98372 62.3204 4.56988L63.6652 0.845329C63.6807 0.793599 63.691 0.741869 63.691 0.684966C63.691 0.369413 63.4428 0.12111 63.1376 0.115937" fill="white"/>
<path d="M92.9196 0.105637H72.1013C67.7721 0.40567 64.2395 3.64914 63.4688 7.82891C63.4688 7.82891 63.4688 7.83236 63.4688 7.83926C63.4223 8.09273 63.3912 8.35138 63.3912 8.62038C63.3912 10.7568 65.1188 12.4898 67.2549 12.4898H79.3476C79.8183 12.5208 80.201 12.8674 80.3097 13.3071C80.3252 13.3588 80.3407 13.4261 80.3407 13.5399V13.6175C80.2993 14.5641 79.5183 15.3246 78.5563 15.3246H61.9689C61.5034 15.3246 61.0948 15.6194 60.9448 16.0384L59.6103 19.7785C59.5948 19.8302 59.5845 19.882 59.5845 19.9441C59.5845 20.2544 59.8379 20.5079 60.1431 20.5183H80.2941C84.9181 20.5183 88.7766 17.1869 89.5887 12.7898V12.7795C89.6404 12.526 89.6662 12.2622 89.6662 11.9932C89.6662 9.8619 87.9387 8.10825 85.8026 8.10825H73.7823C73.2754 8.10825 72.8513 7.75649 72.7427 7.28575C72.7375 7.22884 72.7116 7.16677 72.7116 7.05296V6.98054C72.753 6.02354 73.5392 5.26828 74.4961 5.26828H91.0938C91.5645 5.26828 91.9627 4.97342 92.1179 4.55441L93.4575 0.829855C93.4782 0.778126 93.4834 0.726396 93.4834 0.669493C93.4834 0.35394 93.2403 0.105637 92.9248 0.100464" fill="white"/>
<path d="M131.458 0.105591H113.215C108.886 0.405624 105.359 3.64392 104.583 7.82887V7.83921C104.536 8.09269 104.505 8.35134 104.505 8.62033C104.505 10.7568 106.238 12.4897 108.374 12.4897H120.467C120.937 12.5208 121.325 12.8674 121.429 13.3071C121.439 13.3588 121.46 13.426 121.46 13.5398V13.5554C121.46 13.5554 121.46 13.5916 121.46 13.6071V13.6174C121.424 14.5641 120.637 15.3245 119.675 15.3245H103.093C102.622 15.3245 102.224 15.6194 102.069 16.0384L100.729 19.7836C100.714 19.8354 100.709 19.8871 100.709 19.9492C100.709 20.2596 100.952 20.513 101.262 20.5234H121.413C126.048 20.5234 129.891 17.192 130.703 12.7949V12.7846C130.759 12.5311 130.785 12.2673 130.785 11.9983C130.785 9.86702 129.053 8.11338 126.917 8.11338H114.896C114.389 8.11338 113.97 7.76162 113.857 7.29087C113.846 7.23397 113.826 7.1719 113.826 7.05809V6.98567C113.867 6.02866 114.648 5.27341 115.61 5.27341H129.627C130.097 5.27341 130.501 4.97855 130.651 4.55954L131.996 0.834983C132.011 0.783253 132.027 0.731523 132.027 0.67462C132.027 0.359067 131.773 0.110764 131.468 0.105591" fill="white"/>
<path d="M111.565 31.009C111.565 28.8726 109.838 27.1448 107.696 27.1448H93.4573H92.8676C89.2419 27.1448 85.5334 29.276 84.0438 33.1868C83.8162 33.7972 83.5059 34.6404 83.1335 35.6647C83.0611 35.8251 82.999 35.9802 82.9421 36.1406C82.4145 37.6097 81.8663 39.1099 81.3646 40.5014H81.3542C80.1025 43.9725 79.0784 46.8021 79.0784 46.8073C79.0629 46.859 79.0577 46.9159 79.0577 46.978C79.0577 47.0142 79.0577 47.0608 79.0733 47.1022C79.125 47.3608 79.3474 47.5522 79.6215 47.5574H83.1645V47.547H86.4385C86.9092 47.547 87.3126 47.247 87.4678 46.828L89.7022 40.6618C89.9505 40.041 90.5505 39.5858 91.2539 39.5496C93.5969 39.5496 97.8951 39.5496 99.7053 39.5496C99.9639 39.5962 100.166 39.8341 100.166 40.1083C100.166 40.1238 100.166 40.1393 100.155 40.1548C100.005 40.579 99.8708 40.9567 99.7622 41.267H99.7726C98.8726 43.7397 97.9106 46.4038 97.7916 46.7452C97.7761 46.7711 97.7761 46.7866 97.7709 46.8073C97.7554 46.859 97.7451 46.9159 97.7451 46.978C97.7451 47.2832 97.9933 47.5367 98.2985 47.547H100.398V47.5574H103.812C103.879 47.5574 103.947 47.5574 104.009 47.547H105.074C105.545 47.547 105.948 47.247 106.098 46.828C106.098 46.828 106.109 46.8228 106.109 46.8177C106.14 46.7245 106.393 46.0262 106.724 45.1054C106.786 44.9657 106.838 44.8157 106.89 44.6657C107.505 42.9896 109.905 36.4044 111.374 32.266V32.2557C111.503 31.8625 111.581 31.4435 111.581 31.0038M100.683 35.1526C100.683 35.1526 99.0278 35.1577 97.2951 35.1577H96.9485C95.0865 35.1577 93.2297 35.1577 93.2193 35.1526C92.7331 35.137 92.3297 34.7905 92.2211 34.3352C92.2056 34.2473 92.1901 34.2163 92.1901 34.1076C92.1901 34.0973 92.1901 34.0973 92.1901 34.0869V34.0352C92.2263 33.1661 92.878 32.4626 93.721 32.3436C93.7469 32.3333 93.7676 32.3333 93.7883 32.3281H101.557C102.012 32.3695 102.39 32.7057 102.493 33.1454C102.504 33.2023 102.524 33.2696 102.524 33.3782V33.4558C102.524 33.5645 102.509 33.6679 102.483 33.7714C102.441 33.9007 102.385 34.0455 102.328 34.1956C102.028 34.7698 101.433 35.1526 100.745 35.1577C100.724 35.1577 100.709 35.1526 100.688 35.1526H100.678H100.683Z" fill="white"/>
<path d="M32.5075 4.0112C32.5075 1.87475 30.78 0.146973 28.6387 0.146973H14.3995H13.8151C10.1841 0.146973 6.48599 2.27824 4.99639 6.18902C4.76881 6.79944 4.45847 7.64263 4.0809 8.66689C4.01366 8.82208 3.95159 8.98244 3.8947 9.13763C3.36713 10.6068 2.81887 12.1121 2.31717 13.5036H2.30682C1.04997 16.9799 0.0310335 19.8095 0.020689 19.8147C0.00517224 19.8716 0 19.9233 0 19.9802C0 20.0216 0.00517224 20.063 0.0155167 20.1044C0.0672392 20.363 0.289646 20.5544 0.563775 20.5648H4.11193V20.5492H7.38079C7.85147 20.5492 8.2549 20.2492 8.41007 19.8302L10.6445 13.664C10.8979 13.0381 11.4927 12.588 12.1962 12.5518H20.6476C20.9062 12.6035 21.1028 12.8415 21.1028 13.1157C21.1028 13.1312 21.1028 13.1467 21.1028 13.1674C20.9528 13.5916 20.8183 13.9692 20.7045 14.2796H20.72C19.82 16.7574 18.8632 19.4215 18.7339 19.7629C18.7235 19.7836 18.7183 19.7992 18.7132 19.8199C18.6977 19.8768 18.6821 19.9285 18.6821 19.9854C18.6821 20.3009 18.9356 20.5492 19.2407 20.5544H21.3303V20.5699H24.7492C24.8113 20.5699 24.8785 20.5699 24.9457 20.5544H26.0112C26.4819 20.5544 26.8853 20.2544 27.0405 19.8354C27.0405 19.8354 27.0405 19.8354 27.0405 19.825C27.0767 19.7371 27.3301 19.0336 27.6612 18.1179C27.7181 17.9783 27.775 17.8334 27.8215 17.6782C28.437 16.0074 30.8473 9.41697 32.3058 5.28375C32.3058 5.27858 32.3058 5.27341 32.3058 5.26306C32.4403 4.87509 32.5127 4.4509 32.5127 4.01637M21.6148 8.16511H14.1513C13.6651 8.14959 13.2616 7.803 13.153 7.3426C13.1323 7.25466 13.122 7.22362 13.122 7.10982V7.0374C13.1582 6.16833 13.8099 5.46481 14.653 5.351C14.6737 5.34065 14.6995 5.34065 14.7254 5.34065H22.4837C22.9441 5.38204 23.3165 5.71828 23.4251 6.15281C23.4354 6.20972 23.4561 6.27179 23.4561 6.3856V6.45802C23.4561 6.56665 23.4354 6.67529 23.4147 6.77357C23.3682 6.9029 23.3113 7.04257 23.2596 7.19776C22.9648 7.77196 22.3648 8.16511 21.6769 8.16511H21.62H21.6148Z" fill="white"/>
<path d="M137.954 27.1602H116.753C116.288 27.1602 115.874 27.4447 115.719 27.8533C115.698 27.9154 108.871 46.7917 108.865 46.8123C108.85 46.8641 108.84 46.921 108.84 46.9831C108.84 47.2883 109.088 47.5417 109.398 47.5521H116.215C116.686 47.5521 117.089 47.252 117.244 46.833L119.474 40.6668C119.738 40.0099 120.379 39.5443 121.129 39.5443H129.353C129.668 39.5443 129.922 39.8029 129.922 40.1185C129.922 40.1806 129.911 40.2375 129.896 40.2944C128.918 42.9947 127.698 46.3778 127.553 46.7606C127.542 46.7813 127.532 46.802 127.532 46.8175C127.517 46.8692 127.506 46.9262 127.506 46.9882C127.506 47.2934 127.755 47.5469 128.065 47.5573H134.83C135.306 47.5573 135.704 47.2572 135.854 46.8382C135.859 46.8382 135.865 46.8382 135.865 46.833C135.953 46.6003 137.354 42.7309 137.913 41.1997L137.908 41.1945C138.006 40.9358 138.068 40.6617 138.068 40.372C138.068 39.1098 137.049 38.0907 135.787 38.0907C135.777 38.0907 135.771 38.0907 135.766 38.0907C139.78 36.8905 141.011 34.361 141.476 31.821C141.487 31.7745 141.564 31.3451 141.564 31.1951C141.564 31.1434 141.564 31.0865 141.564 31.0244C141.564 28.9707 139.966 27.2895 137.944 27.1653M132.28 33.404V33.4609C132.239 34.4127 131.458 35.1679 130.496 35.1679H130.434C130.403 35.1731 122.991 35.1731 122.97 35.1679C122.479 35.1473 122.081 34.8058 121.972 34.3506C121.956 34.2627 121.941 34.2316 121.941 34.1178V34.1023V34.0454C121.977 33.1815 122.634 32.4728 123.467 32.3538C123.518 32.3383 123.581 32.3331 123.653 32.3331H131.204C131.711 32.3331 132.135 32.6849 132.249 33.1557C132.26 33.2126 132.28 33.2746 132.28 33.3884V33.4091V33.404Z" fill="white"/>
</svg>
