<svg xmlns="http://www.w3.org/2000/svg" viewBox="0 0 289.01 61.69"><defs><style>.cls-2{fill:#7b868c}</style></defs><g id="Layer_2" data-name="Layer 2"><g id="Capa_1" data-name="Capa 1"><path d="M5.43 32a28 28 0 00.2 3.19A14.49 14.49 0 0019.47 45.3c7.81 0 13.65-6.33 13.62-14.15h4.84a16.4 16.4 0 01-16.29 16.77A16.74 16.74 0 017.34 40a19.14 19.14 0 0017 10.24c10.56 0 18.34-8.57 18.31-19.13l5.08.07A21.7 21.7 0 0126.1 52.76c-8.11 0-15.19-5-18.87-11.59A23.68 23.68 0 0052.5 31.09h3.75A25.42 25.42 0 005.43 32zM0 30.84A30.85 30.85 0 1030.85 0 30.85 30.85 0 000 30.84zm58.6 0A27.75 27.75 0 1130.85 3.1 27.76 27.76 0 0158.6 30.84z" fill="#00a19b"/><path class="cls-2" d="M87.28 14.08c-9 0-15.58 7.53-15.58 16.9v.12C71.7 41.15 79 48 87.91 48a16.48 16.48 0 0012.25-4.9A2.07 2.07 0 1097.4 40a13.28 13.28 0 01-9.4 3.79c-5.79 0-10.75-4-11.44-11h23.5a2.26 2.26 0 002.26-2.27c.04-8.59-5.42-16.44-15.04-16.44zM76.6 29.22c.63-6.35 4.9-11.07 10.55-11.07 6.48 0 9.87 5.16 10.37 11.07zm53.47-14.77a2.36 2.36 0 00-2.38 2.45v16.46c0 6.1-4.21 10.18-9.74 10.18-5.72 0-9-3.77-9-9.8V16.9a2.45 2.45 0 00-2.45-2.45 2.37 2.37 0 00-2.39 2.45v18c0 7.73 4.59 13 12.44 13 5.6 0 8.92-2.82 11.13-6.35v3.53a2.39 2.39 0 104.77 0V16.9a2.4 2.4 0 00-2.38-2.45zm25.39 2.32a2.32 2.32 0 00-2.39-2.44c-4.09 0-8.8 3.26-11.19 8.66V16.9a2.41 2.41 0 00-2.45-2.45 2.44 2.44 0 00-2.38 2.45v28.22a2.42 2.42 0 104.83 0V34.05c0-9.36 5.16-14.07 11.44-14.83a2.4 2.4 0 002.14-2.45zm14.33-2.69a16.81 16.81 0 00-17 17v.13A16.64 16.64 0 00169.66 48a16.86 16.86 0 0017-17v-.13a16.69 16.69 0 00-16.87-16.79zm11.94 17.09c0 6.84-4.91 12.5-11.94 12.5-6.85 0-12-5.66-12-12.63v-.13c0-6.84 4.83-12.57 11.87-12.57 6.85 0 12.07 5.73 12.07 12.7zm31.6-16.72a2.31 2.31 0 00-2.26 1.76l-10.68 25.51-10.5-25.39a2.48 2.48 0 00-4.89.51 4.71 4.71 0 00.31 1.31l12.19 27.53a3 3 0 002.76 2.07h.25a2.91 2.91 0 002.7-2.07L215.47 18a3.43 3.43 0 00.25-1.19 2.39 2.39 0 00-2.39-2.36zm7.36 0a2.44 2.44 0 00-2.39 2.45v28.22a2.41 2.41 0 002.45 2.44 2.36 2.36 0 002.38-2.44V16.9a2.41 2.41 0 00-2.44-2.45zm24.68-.37c-6 0-9.79 3.32-12.43 7.22v-4.4a2.42 2.42 0 10-4.84 0v38.26a2.42 2.42 0 002.45 2.46 2.38 2.38 0 002.39-2.46V41c2.51 3.64 6.4 6.91 12.43 6.91 7.86 0 15.52-6.29 15.52-16.9v-.13c0-10.65-7.72-16.8-15.52-16.8zm10.56 17c0 7.86-5.15 12.5-11.44 12.5-6 0-11.74-5-11.74-12.56v-.13c0-7.41 5.72-12.51 11.74-12.51s11.44 4.93 11.44 12.62zm19.48-2.39c-4.33-1.32-8.35-2.51-8.35-5.59V23c0-2.69 2.44-4.71 6.28-4.71a17.48 17.48 0 018.48 2.52 2.5 2.5 0 001.06.25A2.12 2.12 0 00285 19a2.36 2.36 0 00-1.2-2 22.7 22.7 0 00-10.37-2.76c-6.4 0-11.06 3.71-11.06 9.3v.12c0 6 5.66 7.73 10.75 9.18 4.27 1.19 8.11 2.45 8.11 5.71v.13c0 3.14-2.83 5.15-6.73 5.15a18.18 18.18 0 01-10.3-3.46A2 2 0 00263 40a2.1 2.1 0 00-2.1 2 2.2 2.2 0 00.87 1.76 22.54 22.54 0 0012.51 4.09c6.47 0 11.56-3.58 11.56-9.74V38c0-5.83-5.4-7.78-10.43-9.29zM285.35 46.12a1.84 1.84 0 011.83-1.83A1.82 1.82 0 01289 46.1a1.83 1.83 0 01-1.84 1.83 1.81 1.81 0 01-1.81-1.81zm3.45 0a1.62 1.62 0 10-3.24 0 1.62 1.62 0 103.24 0zm-2.37-.81a.21.21 0 01.21-.22h.65a.8.8 0 01.6.22.55.55 0 01.16.42.59.59 0 01-.39.59l.32.39a.28.28 0 01.06.14.21.21 0 01-.39.12l-.44-.56h-.36v.44a.21.21 0 01-.21.21.21.21 0 01-.21-.21zm.86.74c.21 0 .33-.12.33-.28 0-.19-.13-.28-.35-.28h-.42V46z"/><path d="M.19 61.69a.16.16 0 110-.32h2.44v-1.5a.15.15 0 01.15-.15.15.15 0 01.15.15v1.66a.16.16 0 01-.16.16zM2.48 59.25a.19.19 0 01.19-.2h.09a.2.2 0 010 .4h-.09a.19.19 0 01-.19-.2zM2.69 57.31a1.42 1.42 0 01-1.12.36c-.87 0-1.56-.44-1.56-1.2a1.21 1.21 0 01.25-.75.17.17 0 01.14-.08.16.16 0 01.16.16.14.14 0 010 .09 1 1 0 00-.22.6c0 .52.52.85 1.27.84a.94.94 0 01-.44-.82.92.92 0 01.88-1H2a1 1 0 011 1 1 1 0 01-.31.8zM2 55.85a.63.63 0 00-.61.7.69.69 0 00.63.73.68.68 0 00.64-.74.65.65 0 00-.66-.69zM2.63 55.2l-.87-1c-.4-.45-.62-.6-.91-.6a.54.54 0 00-.55.58.85.85 0 00.42.71.17.17 0 01.06.11.15.15 0 01-.15.15.14.14 0 01-.09 0 1.1 1.1 0 01-.53-1 .82.82 0 01.81-.89c.42 0 .68.22 1.12.73l.69.77v-1.4a.15.15 0 01.14-.15.15.15 0 01.15.15v1.74a.15.15 0 01-.15.16.17.17 0 01-.14-.06zM2.7 52.58l-2.35-1.2v1.45A.15.15 0 01.2 53a.16.16 0 01-.15-.16v-1.69A.14.14 0 01.19 51a.42.42 0 01.15 0l2.5 1.25a.17.17 0 01.11.16.16.16 0 01-.15.16zM2.7 50.33l-2.35-1.2v1.46a.15.15 0 01-.15.15.15.15 0 01-.15-.15V48.9c0-.1.05-.16.14-.16a.42.42 0 01.15 0L2.84 50a.17.17 0 01.11.16.16.16 0 01-.15.16z"/></g></g></svg>