<?xml version="1.0" encoding="utf-8"?>
<!-- Generator: Adobe Illustrator 24.0.2, SVG Export Plug-In . SVG Version: 6.00 Build 0)  -->
<svg version="1.1" id="Layer_1" xmlns="http://www.w3.org/2000/svg" xmlns:xlink="http://www.w3.org/1999/xlink" x="0px" y="0px"
	 viewBox="0 0 374.7 144.8" style="enable-background:new 0 0 374.7 144.8;" xml:space="preserve">
<style type="text/css">
	.st0{fill:#F3BB19;}
	.st1{fill:#DA1F26;}
</style>
<g>
	<path class="st0" d="M326.7,1c-9.2,0-18.3,2.8-25.9,7.9c-7.7,5.1-13.6,12.4-17.2,21c-3.5,8.5-4.4,17.9-2.6,27
		c1.8,9.1,6.3,17.4,12.8,23.9c6.5,6.5,14.9,11,23.9,12.8c9.1,1.8,18.4,0.9,27-2.7c8.5-3.5,15.8-9.5,20.9-17.2s7.9-16.7,7.9-25.9
		c0-12.4-5-24.3-13.7-33C351,5.9,339.1,1,326.7,1z"/>
	<path class="st1" d="M72.1,120.5c24.7,0,44.5-20.8,44.5-48.1c0-26.2-19.9-46.2-44.5-46.2s-44.5,20-44.5,46.2
		C27.6,99.7,47.4,120.5,72.1,120.5z M72.1,2.8c40.3,0,70.7,30.6,70.7,69.6c0,40.2-30.5,71.6-70.7,71.6c-40.3,0-70.7-31.3-70.7-71.6
		C1.3,33.4,31.8,2.8,72.1,2.8"/>
	<path class="st1" d="M228.6,124.9c13.1,0,22.4-13.8,22.4-25.8v-2.3h-4.2c-12.7,0-33,1.7-33,15.4
		C213.8,118.8,218.6,124.9,228.6,124.9z M247.5,80.1h3.1v-0.7c0-14.1-5.6-19.3-18.1-19.3c-4.4,0-13.1,1.2-13.1,6.5v5.2h-22.8V61.5
		c0-18.3,25.9-20.2,36.1-20.2c32.8,0,42.4,17.1,42.4,39v36.5c-0.1,0.6,0,1.1,0.2,1.7c0.2,0.5,0.5,1,0.9,1.4c0.4,0.4,0.9,0.7,1.4,0.9
		c0.5,0.2,1.1,0.3,1.7,0.2h7.7v20.6h-22c-9.1,0-12.5-5-12.5-10.8c0-2.5,0.2-4.2,0.2-4.2h-0.4c-2.8,5.4-7.1,9.9-12.3,13
		c-5.3,3.1-11.3,4.6-17.4,4.3c-17.5,0-33.5-11-33.5-30.6C189.1,82.6,231.5,80.1,247.5,80.1"/>
	<path class="st1" d="M177.9,121.1c-0.6,0.1-1.1,0-1.7-0.2c-0.5-0.2-1-0.5-1.4-0.9c-0.4-0.4-0.7-0.9-0.9-1.4
		c-0.2-0.5-0.3-1.1-0.2-1.7V18.2c0-9-4.1-13.1-13.1-13.1h-15c0,0,3.6,0.5,3.6,29.1v94.3c0,9.2,3.8,13.1,13.1,13.1h23.1v-20.6H177.9z
		"/>
</g>
</svg>
